<?xml version="1.0" encoding="utf-8"?>
<!-- Generator: Adobe Illustrator 19.1.0, SVG Export Plug-In . SVG Version: 6.00 Build 0)  -->
<svg version="1.1" id="Ebene_1" xmlns="http://www.w3.org/2000/svg" xmlns:xlink="http://www.w3.org/1999/xlink" x="0px" y="0px"
	 viewBox="0 0 700 300" style="enable-background:new 0 0 700 300;" xml:space="preserve">
<style type="text/css">
	.st0{fill:#676767;}
	.st1{opacity:0.65;}
	.st2{fill:#FFFFFF;}
	.st3{fill:#FFFFFF;stroke:#676767;stroke-width:5;stroke-miterlimit:10;}
	.st4{fill:#676767;stroke:#FFFFFF;stroke-width:5;stroke-miterlimit:10;}
</style>
<rect class="st0" width="700" height="300"/>
<g class="st1">
	<path class="st2" d="M59.7,138.8c-5.3,11.7-0.1,25.5,11.7,30.8l0,0l0,0c0.1,0,0.1,0,0.2,0.1c0.1,0,0.1,0.1,0.2,0.1l0,0l0,0
		c11.7,5.3,25.5,0.1,30.8-11.7c5.3-11.7,0.1-25.5-11.7-30.8l0,0l0,0c-0.1,0-0.1,0-0.2-0.1c-0.1,0-0.1-0.1-0.2-0.1l0,0l0,0
		C78.8,121.9,65,127.1,59.7,138.8z"/>
	<polygon class="st2" points="17.9,288.9 17.7,288.9 0.4,270.8 -3,320.5 2.5,323 8.1,325.5 43,290.1 18.1,289.1 	"/>
	<path class="st2" d="M133.4,63.5l-2.5,29.8c0,0,24.1,29.5,9.9,61.7c-12.7,28.7-46.5,41.4-75.1,28.5l0,0l0,0c-0.1,0-0.1-0.1-0.2-0.1
		s-0.1-0.1-0.2-0.1l0,0l0,0c-28.6-12.9-41.5-46.6-28.5-75.1c14.6-32,52.7-33.5,52.7-33.5L110.2,53C66.3,40,18.6,61-0.7,103.9
		c-22.4,49.8-2,83.1,5.8,110.8c3,10.6-1,38.8-1,38.8L24.4,274h0.2l0.2,0.2l28.8,1.6c0,0,18.4-21.7,28.4-26.5
		c25.9-12.5,64.4-19.3,86.8-69.1C188.1,137.4,172.2,87.7,133.4,63.5z"/>
</g>
<g class="st1">
	<path class="st2" d="M128.5,275.5H126c-0.6-1.4-1.2-2.8-1.8-4.2c-0.6-1.4-1.2-2.8-1.8-4.2h-6.7c-0.6,1.4-1.2,2.8-1.8,4.2
		c-0.6,1.4-1.2,2.8-1.8,4.2h-2.6c1.6-3.7,3.1-7.5,4.7-11.2c1.5-3.7,3.1-7.4,4.7-11.2c1.6,3.7,3.1,7.5,4.7,11.2
		C125.4,268.1,127,271.8,128.5,275.5z M119.3,259.8l-0.3-1c-0.3,1-0.6,2-1,3c-0.4,1-0.9,1.9-1.2,2.9h4.6c-0.4-0.8-0.7-1.6-1-2.4
		C120,261.4,119.7,260.6,119.3,259.8z"/>
	<path class="st2" d="M139.4,254.2h2.6v21.4h-2.6V254.2z"/>
	<path class="st2" d="M154.3,275.5v-21.4h5c0.7,0,1.5,0.1,2.3,0.3c0.9,0.2,1.6,0.5,2.4,1c0.7,0.5,1.3,1,1.8,1.8
		c0.5,0.7,0.7,1.6,0.7,2.6c0,1.5-0.4,2.8-1.1,3.8c-0.8,1-1.9,1.7-3.3,2.1l4.6,9.7h-2.7l-4.5-9.5H159h-2.1v9.5H154.3z M156.9,263.6
		h2.6c0.9,0,1.6-0.1,2.2-0.4c0.6-0.2,1-0.5,1.4-0.9c0.4-0.4,0.6-0.7,0.7-1.1c0.1-0.4,0.2-0.8,0.2-1.2c0-0.5-0.1-0.9-0.4-1.3
		s-0.5-0.8-1-1.1c-0.4-0.3-0.9-0.5-1.4-0.7c-0.5-0.2-1.1-0.3-1.8-0.3h-2.7V263.6z"/>
	<path class="st2" d="M188.2,256.3c-0.2,0.3-0.5,0.6-0.7,0.9s-0.5,0.6-0.7,0.9c-0.2-0.2-0.4-0.3-0.6-0.5c-0.3-0.2-0.5-0.4-0.9-0.5
		c-0.3-0.2-0.7-0.3-1.1-0.4c-0.4-0.1-0.9-0.2-1.3-0.2c-1.2,0-2.1,0.3-2.6,1c-0.5,0.7-0.9,1.5-0.9,2.4c0,0.5,0.1,1,0.3,1.3
		c0.2,0.4,0.5,0.6,0.8,0.9c0.3,0.2,0.7,0.4,1,0.6c0.4,0.2,0.8,0.3,1.2,0.5c0.7,0.2,1.4,0.5,2.2,0.9c0.8,0.3,1.5,0.8,2.1,1.3
		c0.7,0.5,1.2,1.1,1.6,1.9c0.5,0.8,0.6,1.6,0.6,2.7c0,0.9-0.2,1.7-0.5,2.5c-0.3,0.7-0.8,1.4-1.4,1.9c-0.6,0.5-1.3,0.9-2.1,1.2
		s-1.6,0.4-2.5,0.4c-0.8,0-1.5-0.1-2.3-0.3s-1.4-0.5-2-0.8c-0.6-0.3-1.1-0.7-1.6-1.1c-0.5-0.4-0.9-0.8-1.1-1.2l1.6-1.6
		c0.3,0.3,0.6,0.6,1,0.9c0.4,0.3,0.8,0.6,1.2,0.9s0.9,0.5,1.4,0.6c0.5,0.2,1,0.2,1.6,0.2c0.5,0,1-0.1,1.5-0.2
		c0.5-0.1,0.9-0.4,1.3-0.7c0.4-0.3,0.7-0.7,0.9-1.1c0.2-0.5,0.3-1,0.3-1.5c0-0.8-0.2-1.5-0.6-2c-0.4-0.5-0.9-0.9-1.5-1.3
		c-0.6-0.3-1.2-0.6-1.8-0.8c-0.6-0.2-1.2-0.4-1.6-0.6c-0.4-0.1-0.8-0.3-1.3-0.6c-0.5-0.2-1-0.6-1.5-1c-0.5-0.4-0.9-1-1.2-1.5
		c-0.3-0.6-0.5-1.4-0.5-2.3c0-0.7,0.1-1.3,0.3-2c0.2-0.7,0.5-1.3,1-1.8c0.5-0.5,1.1-1,1.9-1.3c0.8-0.4,1.7-0.5,2.8-0.5
		c0.8,0,1.6,0.1,2.6,0.4C186.1,254.8,187.1,255.4,188.2,256.3z"/>
	<path class="st2" d="M199.6,275.5v-21.4h5c0.7,0,1.5,0.1,2.3,0.3c0.9,0.2,1.6,0.5,2.4,1c0.7,0.5,1.3,1,1.8,1.8
		c0.5,0.7,0.7,1.6,0.7,2.6c0,1.9-0.5,3.3-1.6,4.4c-1.1,1.1-2.7,1.6-4.7,1.6h-3.4v9.5H199.6z M202.1,263.6h2.6c0.9,0,1.6-0.1,2.2-0.4
		s1-0.5,1.4-0.9c0.4-0.4,0.6-0.7,0.7-1.1c0.1-0.4,0.2-0.8,0.2-1.2c0-0.5-0.1-0.9-0.4-1.3s-0.5-0.8-1-1.1c-0.4-0.3-0.9-0.5-1.4-0.7
		c-0.5-0.2-1.1-0.3-1.8-0.3h-2.7V263.6z"/>
	<path class="st2" d="M220.7,264.9c0-1.5,0.3-2.9,0.9-4.2c0.5-1.3,1.4-2.5,2.3-3.5c1-1,2.1-1.8,3.5-2.4s2.7-0.9,4.2-0.9
		c1.5,0,2.9,0.3,4.2,0.9c1.3,0.6,2.5,1.4,3.5,2.4s1.8,2.1,2.4,3.5c0.6,1.3,0.9,2.7,0.9,4.2s-0.3,2.9-0.9,4.2
		c-0.6,1.3-1.4,2.5-2.4,3.5s-2.1,1.8-3.5,2.3c-1.3,0.5-2.7,0.9-4.2,0.9c-1.5,0-2.9-0.3-4.2-0.9c-1.3-0.6-2.5-1.4-3.5-2.3
		c-1-1-1.8-2.1-2.3-3.5C221,267.8,220.7,266.4,220.7,264.9z M223.2,264.9c0,1.2,0.2,2.3,0.6,3.3c0.5,1,1,1.9,1.8,2.7
		c0.8,0.8,1.6,1.4,2.7,1.8c1,0.5,2.1,0.7,3.3,0.7c1.1,0,2.2-0.2,3.3-0.7c1-0.5,1.9-1,2.7-1.8s1.4-1.6,1.8-2.7c0.5-1,0.6-2.1,0.6-3.3
		s-0.2-2.3-0.6-3.3c-0.5-1-1-1.9-1.8-2.7c-0.8-0.8-1.6-1.4-2.7-1.8c-1-0.5-2.1-0.7-3.3-0.7c-1.1,0-2.2,0.2-3.3,0.7
		c-1,0.5-1.9,1-2.7,1.8c-0.8,0.8-1.4,1.7-1.8,2.7C223.5,262.6,223.2,263.7,223.2,264.9z"/>
	<path class="st2" d="M267.4,254.2v2.4h-7.2v19h-2.6v-19h-7.2v-2.4L267.4,254.2L267.4,254.2z"/>
	<path class="st2" d="M290.4,254.2v2.4h-7.2v19h-2.6v-19h-7.2v-2.4L290.4,254.2L290.4,254.2z"/>
</g>
<path class="st2" d="M329,118.7c0,5.1-1.8,9.5-5.4,13.1c-3.6,3.6-8,5.4-13.1,5.4s-9.5-1.8-13.1-5.4c-3.6-3.6-5.4-8-5.4-13.1
	c0-5.1,1.8-9.5,5.4-13.1s8-5.4,13.1-5.4s9.5,1.8,13.1,5.4C327.2,109.2,329,113.6,329,118.7z M427.5,155.7v43.1H292v-18.5l30.8-30.8
	l15.4,15.4l49.3-49.3L427.5,155.7z M436.8,87.9h-154c-0.8,0-1.6,0.3-2.2,0.9c-0.6,0.6-0.9,1.3-0.9,2.2v117c0,0.8,0.3,1.6,0.9,2.2
	c0.6,0.6,1.3,0.9,2.2,0.9h154c0.8,0,1.6-0.3,2.2-0.9c0.6-0.6,0.9-1.3,0.9-2.2V91c0-0.8-0.3-1.6-0.9-2.2
	C438.3,88.2,437.6,87.9,436.8,87.9z M452.2,91v117c0,4.2-1.5,7.9-4.5,10.9c-3,3-6.6,4.5-10.9,4.5h-154c-4.2,0-7.9-1.5-10.9-4.5
	s-4.5-6.6-4.5-10.9V91c0-4.2,1.5-7.9,4.5-10.9c3-3,6.6-4.5,10.9-4.5h154c4.2,0,7.9,1.5,10.9,4.5S452.2,86.7,452.2,91z"/>
<line class="st3" x1="274.5" y1="227.9" x2="433.8" y2="68.6"/>
<line class="st4" x1="276.8" y1="230.5" x2="436.1" y2="71.2"/>
</svg>
