<?xml version="1.0" encoding="utf-8"?>
<!-- Generator: Adobe Illustrator 19.2.1, SVG Export Plug-In . SVG Version: 6.00 Build 0)  -->
<svg version="1.1" id="Ebene_1" xmlns="http://www.w3.org/2000/svg" xmlns:xlink="http://www.w3.org/1999/xlink" x="0px" y="0px"
	 viewBox="0 0 595.3 841.9" style="enable-background:new 0 0 595.3 841.9;" xml:space="preserve">
<style type="text/css">
	.st0{opacity:0.22;}
	.st1{fill:#FFFFFF;stroke:#000000;stroke-miterlimit:10;}
</style>
<g class="st0">
	<path d="M99.4,460.6c-10.1,27.9,4.3,58.7,32.2,68.9c0,0,0,0,0,0c0,0,0,0,0,0c0.2,0.1,0.3,0.1,0.5,0.1c0.2,0.1,0.3,0.1,0.4,0.2
		c0,0,0,0,0,0c0,0,0,0,0,0c27.9,10.1,58.7-4.3,68.9-32.2c10.1-27.9-4.3-58.7-32.2-68.9c0,0,0,0,0,0c0,0,0,0,0,0
		c-0.2-0.1-0.3-0.1-0.5-0.1c-0.1-0.1-0.3-0.1-0.4-0.2c0,0,0,0,0,0c0,0,0,0,0,0C140.4,418.3,109.5,432.7,99.4,460.6z"/>
	<polygon points="29.4,812.9 28.9,812.9 -14.1,774.5 -13.2,889.3 0,894.1 13.1,898.8 87.4,811.2 29.8,813.3 	"/>
	<path d="M255.8,274.6l-0.5,68.9c0,0,60.5,63.7,33.4,140.1c-24.2,68.2-99.8,103.2-167.8,78.5l0,0l0,0c-0.1-0.1-0.3-0.1-0.4-0.2
		c-0.1-0.1-0.3-0.1-0.5-0.2l0,0l0,0c-68-24.7-103.6-100-78.5-167.8c28.1-76,115.4-86.1,115.4-86.1l43.8-53.2
		C97.5,232.3-8.7,288.9-45.6,390.8C-88.5,509.1-35.7,582.3-13,644.6c8.7,23.9,4.3,89.5,4.3,89.5l50.3,43.6l0.5,0l0.4,0.3l66.6-1.3
		c0,0,38.6-53.1,60.7-65.9c57.4-33.3,144.8-55.6,187.7-174C394.4,435,349.2,323.5,255.8,274.6z"/>
</g>
<g>
	<path d="M119.4,127.6c0,3.6,2.9,6.5,6.5,6.5c0,0,0,0,0,0c0,0,0,0,0,0c0,0,0,0,0.1,0c0,0,0,0,0.1,0c0,0,0,0,0,0h0
		c3.6,0,6.5-2.9,6.5-6.5c0-3.6-2.9-6.5-6.5-6.5h0c0,0,0,0,0,0c0,0,0,0-0.1,0c0,0,0,0-0.1,0c0,0,0,0,0,0c0,0,0,0,0,0
		C122.3,121.1,119.4,124,119.4,127.6z"/>
	<polygon points="125.9,170.6 125.9,170.6 119.4,168 124.2,181 125.9,181 127.6,181 132.5,168 126,170.6 	"/>
	<path d="M129.5,100l2.8,7.9c0,0,9.5,4.7,9.6,14.6c0.1,8.8-7.1,15.9-15.8,15.9h0h0c0,0,0,0-0.1,0c0,0,0,0-0.1,0l0,0h0
		c-8.8,0-15.9-7.1-15.9-15.9c0.1-9.8,9.6-14.6,9.6-14.6l2.8-7.9c-12.6,1.7-22.4,12.5-22.4,25.6c0,15.2,9,21.4,14.2,27.5
		c2,2.4,4.2,10,4.2,10l7.5,2.9l0.1,0l0.1,0l7.5-2.9c0,0,2.2-7.6,4.2-10c5.2-6.1,14.2-12.3,14.2-27.5
		C151.9,112.5,142.1,101.7,129.5,100z"/>
</g>
<g>
	<path d="M305.2,126.2h-3c-0.7-1.6-1.4-3.3-2.1-4.9c-0.7-1.7-1.4-3.3-2.1-4.9h-7.9c-0.7,1.6-1.4,3.3-2.1,4.9
		c-0.7,1.7-1.4,3.3-2.1,4.9h-3c1.9-4.4,3.7-8.7,5.5-13.1c1.8-4.3,3.7-8.7,5.5-13.1c1.9,4.4,3.7,8.7,5.5,13.1
		C301.5,117.4,303.4,121.8,305.2,126.2z M294.5,107.8l-0.3-1.2c-0.3,1.2-0.8,2.3-1.3,3.5c-0.5,1.1-1,2.3-1.5,3.4h5.4
		c-0.4-1-0.8-1.9-1.2-2.8C295.3,109.7,294.9,108.7,294.5,107.8z"/>
	<path d="M318,101.1h3v25h-3V101.1z"/>
	<path d="M335.4,126.2v-25h5.9c0.8,0,1.7,0.1,2.7,0.4c1,0.3,1.9,0.7,2.8,1.2c0.9,0.5,1.6,1.3,2.1,2.1c0.6,0.9,0.9,1.9,0.9,3.1
		c0,1.8-0.4,3.3-1.3,4.5c-0.9,1.2-2.2,2-3.9,2.4l5.4,11.4h-3.2l-5.3-11.1h-0.6h-2.4v11.1H335.4z M338.4,112.1h3.1
		c1,0,1.9-0.1,2.6-0.4c0.7-0.3,1.2-0.6,1.6-1c0.4-0.4,0.7-0.9,0.9-1.4c0.2-0.5,0.2-1,0.2-1.4c0-0.5-0.1-1-0.4-1.5
		c-0.3-0.5-0.6-0.9-1.1-1.3c-0.5-0.4-1-0.7-1.7-0.9c-0.7-0.2-1.4-0.3-2.1-0.3h-3.1V112.1z"/>
	<path d="M375.1,103.6c-0.3,0.4-0.6,0.7-0.8,1.1c-0.3,0.4-0.6,0.7-0.8,1.1c-0.2-0.2-0.4-0.4-0.8-0.6c-0.3-0.2-0.7-0.4-1.1-0.6
		c-0.4-0.2-0.8-0.4-1.3-0.5c-0.5-0.1-1-0.2-1.6-0.2c-1.4,0-2.4,0.4-3.1,1.2c-0.7,0.8-1,1.7-1,2.8c0,0.6,0.1,1.1,0.3,1.5
		c0.2,0.4,0.5,0.7,0.9,1c0.4,0.3,0.8,0.5,1.3,0.7c0.5,0.2,0.9,0.4,1.4,0.5c0.8,0.3,1.6,0.6,2.5,1c0.9,0.4,1.7,0.9,2.5,1.5
		c0.8,0.6,1.4,1.4,1.9,2.2c0.5,0.9,0.8,1.9,0.8,3.2c0,1.1-0.2,2-0.6,2.9c-0.4,0.9-0.9,1.6-1.6,2.2c-0.7,0.6-1.5,1.1-2.4,1.4
		c-0.9,0.3-1.9,0.5-2.9,0.5c-0.9,0-1.8-0.1-2.6-0.4c-0.9-0.2-1.6-0.6-2.4-1c-0.7-0.4-1.4-0.8-1.9-1.3c-0.6-0.5-1-1-1.3-1.4l1.9-1.9
		c0.3,0.3,0.7,0.7,1.1,1.1c0.4,0.4,0.9,0.7,1.4,1c0.5,0.3,1,0.6,1.6,0.8c0.6,0.2,1.2,0.3,1.9,0.3c0.6,0,1.2-0.1,1.8-0.3
		c0.6-0.2,1.1-0.4,1.5-0.8c0.4-0.3,0.8-0.8,1.1-1.3c0.3-0.5,0.4-1.1,0.4-1.8c0-1-0.2-1.7-0.7-2.3c-0.5-0.6-1-1.1-1.7-1.5
		c-0.7-0.4-1.4-0.7-2.1-0.9c-0.7-0.2-1.4-0.5-1.9-0.7c-0.4-0.2-0.9-0.4-1.5-0.7c-0.6-0.3-1.2-0.7-1.7-1.2c-0.5-0.5-1-1.1-1.4-1.8
		c-0.4-0.7-0.6-1.6-0.6-2.7c0-0.8,0.1-1.6,0.3-2.4c0.2-0.8,0.6-1.5,1.2-2.1c0.5-0.6,1.3-1.2,2.2-1.6c0.9-0.4,2-0.6,3.3-0.6
		c1,0,1.9,0.2,3,0.5C372.7,101.8,373.8,102.5,375.1,103.6z"/>
	<path d="M388.4,126.2v-25h5.9c0.8,0,1.7,0.1,2.7,0.4c1,0.3,1.9,0.7,2.8,1.2c0.9,0.5,1.6,1.3,2.1,2.1c0.6,0.9,0.9,1.9,0.9,3.1
		c0,2.2-0.6,3.9-1.9,5.2c-1.3,1.3-3.1,1.9-5.6,1.9h-3.9v11.1H388.4z M391.3,112.1h3.1c1,0,1.9-0.1,2.6-0.4c0.7-0.3,1.2-0.6,1.6-1
		c0.4-0.4,0.7-0.9,0.9-1.4c0.2-0.5,0.2-1,0.2-1.4c0-0.5-0.1-1-0.4-1.5c-0.3-0.5-0.6-0.9-1.1-1.3c-0.5-0.4-1-0.7-1.7-0.9
		c-0.7-0.2-1.4-0.3-2.1-0.3h-3.1V112.1z"/>
	<path d="M413.1,113.7c0-1.7,0.3-3.4,1-4.9c0.7-1.6,1.6-2.9,2.7-4.1c1.2-1.2,2.5-2.1,4.1-2.8c1.5-0.7,3.2-1,5-1c1.7,0,3.4,0.3,4.9,1
		c1.6,0.7,2.9,1.6,4.1,2.8c1.2,1.2,2.1,2.5,2.8,4.1c0.7,1.6,1,3.2,1,4.9c0,1.8-0.3,3.4-1,5c-0.7,1.5-1.6,2.9-2.8,4.1
		c-1.2,1.2-2.5,2.1-4.1,2.7c-1.6,0.7-3.2,1-4.9,1c-1.8,0-3.4-0.3-5-1c-1.5-0.7-2.9-1.6-4.1-2.7c-1.2-1.2-2.1-2.5-2.7-4.1
		C413.5,117.1,413.1,115.4,413.1,113.7z M416.1,113.7c0,1.4,0.3,2.7,0.8,3.9c0.5,1.2,1.2,2.3,2.1,3.1c0.9,0.9,1.9,1.6,3.1,2.1
		c1.2,0.5,2.5,0.8,3.8,0.8c1.4,0,2.6-0.3,3.8-0.8c1.2-0.5,2.2-1.2,3.1-2.1c0.9-0.9,1.6-1.9,2.1-3.1c0.5-1.2,0.8-2.5,0.8-3.9
		c0-1.4-0.3-2.7-0.8-3.9c-0.5-1.2-1.2-2.3-2.1-3.2c-0.9-0.9-1.9-1.6-3.1-2.1c-1.2-0.5-2.5-0.8-3.8-0.8c-1.4,0-2.6,0.3-3.8,0.8
		c-1.2,0.5-2.2,1.2-3.1,2.1c-0.9,0.9-1.6,2-2.1,3.2C416.4,111,416.1,112.3,416.1,113.7z"/>
	<path d="M467.8,101.1v2.8h-8.4v22.2h-3V104h-8.4v-2.8H467.8z"/>
	<path d="M494.7,101.1v2.8h-8.4v22.2h-3V104H475v-2.8H494.7z"/>
</g>
<rect x="-14.3" y="211.4" class="st1" width="639.1" height="203.2"/>
<g>
</g>
<g>
</g>
<g>
</g>
<g>
</g>
<g>
</g>
<g>
</g>
</svg>
