<?xml version="1.0" encoding="utf-8"?>
<!-- Generator: Adobe Illustrator 19.1.0, SVG Export Plug-In . SVG Version: 6.00 Build 0)  -->
<svg version="1.1" id="Ebene_1" xmlns="http://www.w3.org/2000/svg" xmlns:xlink="http://www.w3.org/1999/xlink" x="0px" y="0px"
	 viewBox="0 0 700 300" style="enable-background:new 0 0 700 300;" xml:space="preserve">
<style type="text/css">
	.st0{fill:#676767;}
	.st1{opacity:0.65;}
	.st2{fill:#FFFFFF;}
</style>
<rect class="st0" width="700" height="300"/>
<g class="st1">
	<path class="st2" d="M59.7,138.8c-5.3,11.7-0.1,25.5,11.7,30.8c0,0,0,0,0,0c0,0,0,0,0,0c0.1,0,0.1,0,0.2,0.1c0.1,0,0.1,0.1,0.2,0.1
		c0,0,0,0,0,0c0,0,0,0,0,0c11.7,5.3,25.5,0.1,30.8-11.7c5.3-11.7,0.1-25.5-11.7-30.8c0,0,0,0,0,0c0,0,0,0,0,0c-0.1,0-0.1,0-0.2-0.1
		c-0.1,0-0.1-0.1-0.2-0.1c0,0,0,0,0,0c0,0,0,0,0,0C78.8,121.9,65,127.1,59.7,138.8z"/>
	<polygon class="st2" points="17.9,288.9 17.7,288.9 0.4,270.8 -3,320.5 2.5,323 8.1,325.5 43,290.1 18.1,289.1 	"/>
	<path class="st2" d="M133.4,63.5l-2.5,29.8c0,0,24.1,29.5,9.9,61.7c-12.7,28.7-46.5,41.4-75.1,28.5l0,0l0,0c-0.1,0-0.1-0.1-0.2-0.1
		c-0.1,0-0.1-0.1-0.2-0.1l0,0l0,0c-28.6-12.9-41.5-46.6-28.5-75.1c14.6-32,52.7-33.5,52.7-33.5L110.2,53C66.3,40,18.6,61-0.7,103.9
		c-22.4,49.8-2,83.1,5.8,110.8c3,10.6-1,38.8-1,38.8l20.3,20.5l0.2,0l0.2,0.2l28.8,1.6c0,0,18.4-21.7,28.4-26.5
		c25.9-12.5,64.4-19.3,86.8-69.1C188.1,137.4,172.2,87.7,133.4,63.5z"/>
</g>
<g>
	<path class="st2" d="M284.7,174.2h-5.6c-1.3-3.1-2.6-6.2-3.9-9.3c-1.3-3.1-2.6-6.2-3.9-9.3h-14.7c-1.3,3.1-2.6,6.2-3.9,9.3
		c-1.3,3.1-2.6,6.2-3.9,9.3h-5.6c3.5-8.2,6.9-16.4,10.4-24.5c3.4-8.1,6.9-16.3,10.4-24.5c3.5,8.2,6.9,16.4,10.4,24.5
		C277.7,157.9,281.2,166,284.7,174.2z M264.5,139.8l-0.6-2.2c-0.6,2.2-1.4,4.4-2.3,6.5c-0.9,2.1-1.9,4.2-2.7,6.4H269
		c-0.8-1.8-1.5-3.6-2.2-5.3C266,143.3,265.3,141.5,264.5,139.8z"/>
	<path class="st2" d="M308.6,127.4h5.6v46.9h-5.6V127.4z"/>
	<path class="st2" d="M341.2,174.2v-46.9h11c1.5,0,3.2,0.2,5.1,0.7c1.9,0.5,3.6,1.2,5.2,2.2c1.6,1,2.9,2.3,4,4
		c1.1,1.6,1.6,3.5,1.6,5.8c0,3.3-0.8,6.1-2.5,8.4c-1.7,2.3-4.1,3.7-7.3,4.5l10,21.3h-6l-9.8-20.9h-1.1h-4.6v20.9H341.2z M346.8,148
		h5.8c2,0,3.6-0.3,4.9-0.8c1.3-0.5,2.3-1.1,3-1.9c0.8-0.8,1.3-1.6,1.6-2.5c0.3-0.9,0.5-1.8,0.5-2.7c0-1-0.3-1.9-0.8-2.8
		c-0.5-0.9-1.2-1.7-2.1-2.4c-0.9-0.7-1.9-1.2-3.1-1.6c-1.2-0.4-2.5-0.6-3.9-0.6h-5.9V148z"/>
	<path class="st2" d="M415.6,132c-0.5,0.7-1.1,1.3-1.6,2c-0.5,0.7-1,1.3-1.6,2c-0.4-0.4-0.8-0.7-1.4-1.2c-0.6-0.4-1.2-0.8-2-1.2
		c-0.7-0.4-1.6-0.7-2.5-0.9c-0.9-0.2-1.9-0.4-2.9-0.4c-2.6,0-4.5,0.7-5.8,2.2c-1.2,1.5-1.9,3.2-1.9,5.2c0,1.1,0.2,2.1,0.6,2.8
		c0.4,0.8,1,1.4,1.7,1.9c0.7,0.5,1.5,0.9,2.3,1.3c0.9,0.4,1.8,0.7,2.7,1c1.5,0.5,3.1,1.2,4.8,1.9c1.7,0.7,3.3,1.7,4.7,2.8
		c1.5,1.1,2.7,2.5,3.6,4.2c1,1.7,1.4,3.6,1.4,6c0,2-0.4,3.8-1.1,5.4c-0.7,1.6-1.7,3-3,4.1c-1.3,1.1-2.8,2-4.5,2.6
		c-1.7,0.6-3.5,0.9-5.4,0.9c-1.7,0-3.3-0.2-5-0.7s-3.1-1.1-4.4-1.8c-1.3-0.7-2.5-1.6-3.6-2.4c-1-0.9-1.9-1.8-2.4-2.7l3.5-3.5
		c0.6,0.6,1.3,1.3,2.1,2c0.8,0.7,1.7,1.3,2.6,1.9c0.9,0.6,2,1.1,3.1,1.4c1.1,0.4,2.3,0.5,3.6,0.5c1.2,0,2.3-0.2,3.3-0.5
		c1.1-0.3,2-0.8,2.8-1.5c0.8-0.6,1.5-1.5,2-2.4c0.5-1,0.7-2.1,0.7-3.4c0-1.8-0.4-3.2-1.3-4.4c-0.9-1.1-1.9-2-3.2-2.8
		c-1.3-0.7-2.6-1.3-4-1.8c-1.4-0.4-2.6-0.9-3.6-1.3c-0.8-0.3-1.8-0.7-2.9-1.3c-1.1-0.5-2.2-1.3-3.2-2.2c-1-0.9-1.9-2.1-2.6-3.4
		c-0.7-1.4-1.1-3-1.1-5c0-1.5,0.2-2.9,0.6-4.4c0.4-1.5,1.2-2.8,2.2-4c1-1.2,2.4-2.2,4.1-2.9c1.7-0.8,3.8-1.1,6.2-1.1
		c1.8,0,3.6,0.3,5.6,0.9C411,128.7,413.2,130,415.6,132z"/>
	<path class="st2" d="M440.5,174.2v-46.9h11c1.5,0,3.2,0.2,5.1,0.7c1.9,0.5,3.6,1.2,5.2,2.2c1.6,1,2.9,2.3,4,4
		c1.1,1.6,1.6,3.5,1.6,5.8c0,4.1-1.2,7.3-3.6,9.7c-2.4,2.4-5.9,3.6-10.4,3.6H446v20.9H440.5z M446,148h5.8c2,0,3.6-0.3,4.9-0.8
		c1.3-0.5,2.3-1.1,3-1.9c0.8-0.8,1.3-1.6,1.6-2.5c0.3-0.9,0.5-1.8,0.5-2.7c0-1-0.3-1.9-0.8-2.8c-0.5-0.9-1.2-1.7-2.1-2.4
		c-0.9-0.7-1.9-1.2-3.1-1.6c-1.2-0.4-2.5-0.6-3.9-0.6H446V148z"/>
	<path class="st2" d="M486.9,150.9c0-3.3,0.6-6.3,1.9-9.3c1.2-2.9,3-5.5,5.1-7.7c2.2-2.2,4.7-3.9,7.6-5.2c2.9-1.3,6-1.9,9.3-1.9
		c3.3,0,6.3,0.6,9.3,1.9c2.9,1.3,5.5,3,7.7,5.2c2.2,2.2,3.9,4.7,5.2,7.7c1.3,2.9,1.9,6,1.9,9.3c0,3.3-0.6,6.4-1.9,9.3
		c-1.3,2.9-3,5.4-5.2,7.6c-2.2,2.2-4.7,3.9-7.7,5.1c-2.9,1.2-6,1.9-9.3,1.9c-3.3,0-6.4-0.6-9.3-1.9c-2.9-1.3-5.4-3-7.6-5.1
		c-2.2-2.2-3.9-4.7-5.1-7.6C487.5,157.3,486.9,154.2,486.9,150.9z M492.4,150.9c0,2.6,0.5,5,1.4,7.3c1,2.3,2.3,4.2,3.9,5.9
		c1.7,1.7,3.6,3,5.9,4c2.2,1,4.6,1.5,7.2,1.5c2.5,0,4.9-0.5,7.2-1.5c2.2-1,4.2-2.3,5.9-4c1.7-1.7,3-3.6,3.9-5.9
		c1-2.3,1.4-4.7,1.4-7.3c0-2.6-0.5-5-1.4-7.3c-1-2.3-2.3-4.2-3.9-5.9c-1.7-1.7-3.6-3-5.9-4c-2.2-1-4.6-1.5-7.2-1.5
		c-2.5,0-4.9,0.5-7.2,1.5c-2.2,1-4.2,2.3-5.9,4c-1.7,1.7-3,3.7-3.9,5.9C492.9,145.9,492.4,148.3,492.4,150.9z"/>
	<path class="st2" d="M589.3,127.4v5.3h-15.7v41.6h-5.6v-41.6h-15.8v-5.3H589.3z"/>
	<path class="st2" d="M639.8,127.4v5.3h-15.7v41.6h-5.6v-41.6h-15.8v-5.3H639.8z"/>
</g>
<g>
</g>
<g>
</g>
<g>
</g>
<g>
</g>
<g>
</g>
<g>
</g>
</svg>
